<svg width="400" height="400" viewBox="0 0 400 400" fill="none" xmlns="http://www.w3.org/2000/svg">
<path fill-rule="evenodd" clip-rule="evenodd" d="M1.42209 0.130838C-1.02979 1.0701 -0.901834 1.42376 6.58589 14.4097C7.72928 16.3942 9.42062 19.3452 10.3421 20.9687C11.2647 22.5922 12.6196 24.9535 13.3523 26.216C14.9652 28.9929 22.4767 42.1635 25.3857 47.3152C26.5404 49.3585 27.7499 51.4742 28.0729 52.0157C28.3959 52.5562 29.466 54.4263 30.4515 56.1695C32.5659 59.9128 35.8165 65.6177 38.612 70.4903C40.9721 74.6031 42.1588 76.681 47.4144 85.9036C49.5722 89.6921 52.0406 94.0211 52.8982 95.5239C60.1764 108.281 62.2867 111.972 66.4588 119.246C69.0789 123.815 72.3894 129.621 73.8134 132.146C75.2375 134.671 77.8008 139.197 79.5097 142.202C81.2176 145.209 85.5434 152.833 89.1212 159.147C92.6999 165.46 95.7039 170.723 95.7968 170.844C95.8896 170.964 97.6842 174.112 99.7842 177.84C107.185 190.973 107.521 191.498 108.884 192.091C110.796 192.922 110.95 192.734 119.45 179.13C129.218 163.495 129.727 162.681 131.555 159.803C132.434 158.42 134.072 155.813 135.196 154.009C136.321 152.205 139.76 146.744 142.84 141.875C145.92 137.005 148.966 132.183 149.61 131.161C151.787 127.706 157.56 118.601 158.69 116.841C159.699 115.269 161.013 113.192 167.68 102.63C170.119 98.7656 170.428 98.0562 170.426 96.3362C170.423 94.1103 170.575 94.4178 164.598 84.4826C162.789 81.477 160.905 78.3286 160.409 77.487C159.914 76.6443 158.848 74.8738 158.039 73.5515C157.231 72.2282 155.632 69.572 154.485 67.6484C153.34 65.7237 150.73 61.3453 148.687 57.9189C146.643 54.4914 142.908 48.2188 140.386 43.9801C137.864 39.7403 135.476 35.7555 135.079 35.1248C134.683 34.4941 133.024 31.7645 131.393 29.059C126.564 21.0475 124.966 18.8908 121.09 15.1485C112.629 6.98165 102.051 1.97472 89.8889 0.378508C87.8756 0.115096 2.09078 -0.126278 1.42209 0.130838ZM285.742 0.133984C270.408 0.977743 256.001 8.25464 246.661 19.8763C245.145 21.7621 243.006 24.879 239.627 30.1242C237.913 32.7856 234.382 38.2574 231.78 42.2842C229.179 46.3099 225.986 51.2811 224.686 53.3307C223.384 55.3803 221.254 58.7028 219.952 60.7125C218.65 62.7233 216.802 65.5977 215.845 67.1016C214.887 68.6044 212.432 72.4412 210.387 75.6284C205.912 82.6041 196.903 96.6699 188.893 109.189C173.722 132.899 168.697 140.766 162.561 150.402C152.683 165.915 150.71 169.004 145.916 176.475C130.102 201.111 124.557 209.81 123.358 211.856C123.105 212.287 122.745 213.251 122.556 214C121.936 216.462 121.455 215.427 132.026 234.358C133.47 236.943 136.564 242.502 138.903 246.711C148.712 264.365 148.54 264.092 149.825 264.092C151.136 264.092 151.429 263.701 158.183 252.942C159.655 250.597 162.093 246.711 163.602 244.306C165.11 241.9 167.659 237.866 169.265 235.341C170.871 232.816 173.895 228.044 175.984 224.738C186.833 207.565 190.071 202.443 190.736 201.404C192.196 199.123 192.977 199.033 195.782 200.834C196.899 201.551 199.698 203.329 202.005 204.785C208.58 208.938 208.567 208.906 205.564 213.696C198.182 225.47 177.454 258.44 175.459 261.578C174.196 263.565 162.111 282.953 160.456 285.648C157.204 290.943 156.322 293.313 155.741 298.308C155.331 301.828 155.332 385.47 155.742 390.633C156.479 399.927 155.781 399.742 190.825 399.943C231.736 400.175 240.287 399.767 242.648 397.469C244.301 395.86 244.336 394.591 244.379 335.695C244.399 309.721 244.489 286.896 244.581 284.972C245.151 273.089 248.094 263.598 254.335 253.517C257.237 248.829 265.575 234.668 271.987 223.535C273.027 221.731 274.96 218.386 276.287 216.102C280.252 209.266 288.881 194.342 289.939 192.489C291.155 190.36 294.948 183.792 297.454 179.48C300.341 174.511 304.855 166.713 309.668 158.382C311.265 155.615 313.801 151.238 315.302 148.652C316.804 146.067 319.61 141.197 321.539 137.83C323.467 134.463 326.127 129.839 327.451 127.554C328.775 125.27 330.515 122.268 331.316 120.886C332.117 119.503 333.28 117.486 333.902 116.404C334.522 115.322 335.83 113.058 336.81 111.375C337.788 109.691 339.912 106.002 341.529 103.176C343.146 100.35 345.149 96.8577 345.981 95.4147C346.813 93.9717 348.877 90.3805 350.568 87.4347C352.259 84.4879 354.045 81.3888 354.536 80.5472C355.027 79.7055 356.816 76.6065 358.51 73.6607C363.443 65.0845 370.236 53.3664 378.346 39.4443C385.13 27.7996 387.184 24.264 388.826 21.4064C389.691 19.9036 391.435 16.9021 392.702 14.7382C393.97 12.5731 395.858 9.32718 396.898 7.52317C400.452 1.36604 400.395 1.52031 399.452 0.619882L398.898 0.0899075L370.268 0.0363869C354.522 0.00700221 341.422 0.0426844 341.158 0.115097C340.874 0.193805 340.311 0.840266 339.778 1.69872C339.283 2.49735 335.718 8.11926 331.856 14.1914C327.994 20.2635 324.576 25.6483 324.261 26.1562C322.832 28.4608 322.011 28.3926 317.826 25.622C316.024 24.4288 313.244 22.6258 311.648 21.6152C308.046 19.3347 307.778 19.0766 307.778 17.8897C307.778 16.8916 307.771 16.9053 310.578 12.442C311.598 10.8185 313.384 7.96604 314.546 6.10222C315.706 4.23839 316.981 2.22239 317.377 1.62315C317.773 1.02287 318.097 0.407892 318.097 0.256771C318.097 0.000704525 290.083 -0.105291 285.742 0.133984ZM294.194 54.1734C301.402 58.8518 301.316 58.791 301.665 59.4763C302.194 60.5184 302.024 61.0777 300.433 63.5272C297.736 67.6809 280.48 94.8554 278.508 98.0552C275.224 103.386 276.335 103.497 266.097 96.8284C259.759 92.7009 259.814 92.8205 262.395 88.7465C263.194 87.484 265.031 84.5813 266.477 82.2966C267.922 80.012 269.897 76.9066 270.866 75.3965C271.835 73.8863 273.736 70.8859 275.089 68.7282C276.444 66.5706 278.147 63.8714 278.874 62.7285C281.233 59.0208 284.465 53.9005 285.161 52.7682C287.061 49.6775 287.331 49.7195 294.194 54.1734ZM244.269 125.895C257.24 134.251 256.521 133.373 253.855 137.576C253.157 138.678 251.059 141.989 249.192 144.935C247.326 147.882 244.331 152.605 242.535 155.43C239.123 160.8 231.596 172.691 230.107 175.064C228.615 177.442 227.496 177.645 224.882 176.012C211.308 167.528 212.02 168.491 215.413 163.208C216.268 161.877 217.33 160.196 217.773 159.475C218.215 158.753 219.329 156.983 220.246 155.54C224.049 149.562 233.733 134.221 236.503 129.784C240.445 123.472 240.48 123.454 244.269 125.895Z" fill="#496453"/>
</svg>
